<?xml version="1.0" encoding="UTF-8" standalone="no"?>
<svg
   xmlns:dc="http://purl.org/dc/elements/1.1/"
   xmlns:cc="http://creativecommons.org/ns#"
   xmlns:rdf="http://www.w3.org/1999/02/22-rdf-syntax-ns#"
   xmlns:svg="http://www.w3.org/2000/svg"
   xmlns="http://www.w3.org/2000/svg"
   xmlns:sodipodi="http://sodipodi.sourceforge.net/DTD/sodipodi-0.dtd"
   xmlns:inkscape="http://www.inkscape.org/namespaces/inkscape"
   width="379.79626"
   height="87.482178"
   viewBox="-10 0 379.79627 87.482176"
   class="css-1j8o68f"
   version="1.1"
   id="svg847"
   sodipodi:docname="himaya-logo.svg"
   inkscape:version="1.0.1 (c497b03c, 2020-09-10)">
  <metadata
     id="metadata851">
    <rdf:RDF>
      <cc:Work
         rdf:about="">
        <dc:format>image/svg+xml</dc:format>
        <dc:type
           rdf:resource="http://purl.org/dc/dcmitype/StillImage" />
        <dc:title></dc:title>
      </cc:Work>
    </rdf:RDF>
  </metadata>
  <sodipodi:namedview
     pagecolor="#000000"
     bordercolor="#666666"
     borderopacity="1"
     objecttolerance="10"
     gridtolerance="10"
     guidetolerance="10"
     inkscape:pageopacity="1"
     inkscape:pageshadow="2"
     inkscape:window-width="1680"
     inkscape:window-height="997"
     id="namedview849"
     showgrid="false"
     fit-margin-top="0"
     fit-margin-left="0"
     fit-margin-right="0"
     fit-margin-bottom="0"
     inkscape:pagecheckerboard="false"
     inkscape:zoom="1.337559"
     inkscape:cx="189.89816"
     inkscape:cy="33.7411"
     inkscape:window-x="0"
     inkscape:window-y="25"
     inkscape:window-maximized="1"
     inkscape:current-layer="svg847" />
  <defs
     id="SvgjsDefs1001">
    <linearGradient
       id="SvgjsLinearGradient1011">
      <stop
         id="SvgjsStop1012"
         stop-color="#fbb040"
         offset="0" />
      <stop
         id="SvgjsStop1013"
         stop-color="#f9ed32"
         offset="1" />
    </linearGradient>
  </defs>
  <path
     d="m 47.798114,48.868714 v -8.853973 c 0,-2.01496 -1.638906,-3.653866 -3.653866,-3.653866 h -2.385627 v -4.897324 c 0,-4.773408 -3.883378,-8.655709 -8.657865,-8.655709 -4.774486,0 -8.658942,3.883378 -8.658942,8.655709 v 4.897324 h -2.385626 c -2.013883,0 -3.653867,1.638906 -3.653867,3.653866 v 8.853973 c 0,8.010276 6.516834,14.526033 14.526032,14.526033 h 0.341574 c 8.011353,-0.0011 14.528187,-6.516835 14.528187,-14.526033 z M 26.596852,31.463551 c 0,-3.584905 2.917921,-6.500671 6.503904,-6.500671 3.585983,0 6.502827,2.916844 6.502827,6.500671 v 4.897324 H 26.596852 Z m -6.038416,17.405163 v -8.853973 c 0,-0.826457 0.672372,-1.498828 1.498829,-1.498828 h 22.08806 c 0.826457,0 1.498829,0.672371 1.498829,1.498828 v 8.853973 c 0,6.821772 -5.549222,12.370995 -12.370995,12.370995 h -0.341573 c -6.823927,-0.0011 -12.37315,-5.5503 -12.37315,-12.370995 z"
     id="path837"
     style="fill:#800066;stroke-width:1.07752;fill-opacity:1;opacity:1" />
  <path
     d="m 34.178275,55.868277 v -4.738928 c 2.028968,-0.488116 3.546115,-2.306968 3.546115,-4.483556 0,-2.54941 -2.074224,-4.623634 -4.623634,-4.623634 -2.549409,0 -4.624711,2.074224 -4.624711,4.623634 0,2.176588 1.518224,3.99544 3.547192,4.483556 v 4.738928 c 0,0.59479 0.481651,1.077519 1.077519,1.077519 0.595868,0 1.077519,-0.482729 1.077519,-1.077519 z M 30.631083,46.64687 c 0,-1.360906 1.107689,-2.468596 2.469673,-2.468596 1.361984,0 2.468596,1.106612 2.468596,2.468596 0,1.361984 -1.106612,2.468596 -2.468596,2.468596 -1.361984,0 -2.469673,-1.107689 -2.469673,-2.468596 z"
     id="path839"
     style="fill:#800066;stroke-width:1.07752;fill-opacity:1;opacity:1" />
  <path
     d="M 1.2417546,79.461631 C 0.73639828,76.84757 -1.5651821,74.864935 -4.324708,74.864935 -7.4538229,74.864935 -10,77.410035 -10,80.53915 c 0,3.12911 2.5450996,5.67421 5.675292,5.67421 2.7606034,0 5.06110628,-1.98263 5.5664626,-4.59669 H 13.749594 c 0.316791,0 0.617419,-0.139 0.823225,-0.38144 L 23.91814,70.193891 c 2.885596,0.976232 5.97161,1.513914 9.183694,1.513914 3.211006,0 6.29702,-0.537682 9.182616,-1.513914 l 9.345321,11.040259 c 0.204729,0.24244 0.506434,0.38144 0.823225,0.38144 h 12.507839 c 0.505357,2.61406 2.806937,4.5967 5.566463,4.5967 3.129115,0 5.676369,-2.5451 5.676369,-5.67422 0,-3.129113 -2.546177,-5.674212 -5.676369,-5.674212 -2.760604,0 -5.061106,1.982635 -5.566463,4.596695 H 52.95081 L 44.419015,69.380364 C 54.306328,65.126319 61.339294,55.478215 61.796162,44.163189 h 3.151743 c 0.464411,2.664704 2.781076,4.702293 5.577238,4.702293 3.129115,0 5.676369,-2.5451 5.676369,-5.674215 0,-3.129115 -2.546177,-5.674214 -5.676369,-5.674214 -2.72289,0 -5.000765,1.928758 -5.547068,4.490021 H 61.800472 C 61.417953,30.730839 54.502437,21.087044 44.722875,16.743566 L 53.179244,6.751733 H 64.95868 c 0.505357,2.614061 2.806937,4.596696 5.566463,4.596696 3.129115,0 5.676369,-2.5451 5.676369,-5.674215 C 76.201512,2.545099 73.655335,0 70.52622,0 67.765617,0 65.465114,1.982634 64.959758,4.596695 H 52.679275 c -0.316791,0 -0.617419,0.139 -0.823225,0.381442 l -9.246189,10.924964 c -2.978263,-1.047348 -6.177416,-1.623821 -9.509105,-1.623821 -3.332766,0 -6.531919,0.576473 -9.510181,1.624899 L 14.344385,4.978137 C 14.139656,4.735695 13.837951,4.596695 13.52116,4.596695 H 1.2417546 C 0.73639828,1.982634 -1.5641046,0 -4.324708,0 -7.4538229,0 -10,2.545099 -10,5.674214 c 0,3.129115 2.5450996,5.674215 5.675292,5.674215 2.7606034,0 5.06110628,-1.982635 5.5664626,-4.596696 H 13.021192 l 8.456368,9.991833 C 11.699076,21.087044 4.7846368,30.730839 4.4010401,42.008151 H 1.2223593 C 0.6749797,39.446889 -1.6018177,37.51813 -4.324708,37.51813 -7.4538229,37.51813 -10,40.06323 -10,43.192345 c 0,3.129115 2.5450996,5.674214 5.675292,5.674214 2.7972391,0 5.11390471,-2.037588 5.5772378,-4.702292 H 4.4053501 C 4.8622181,55.479293 11.895184,65.127397 21.78142,69.381442 L 13.248548,79.462708 H 1.2417546 Z M -4.324708,84.05725 c -1.9406115,0 -3.5202542,-1.57857 -3.5202542,-3.51918 0,-1.940609 1.5796427,-3.519174 3.5202542,-3.519174 1.9416891,0 3.52133177,1.578565 3.52133177,3.519174 0,1.94061 -1.57964267,3.51918 -3.52133177,3.51918 z M 70.52622,77.019973 c 1.941689,0 3.521332,1.578565 3.521332,3.519177 0,1.94061 -1.579643,3.51918 -3.521332,3.51918 -1.941689,0 -3.521331,-1.57857 -3.521331,-3.51918 0,-1.940612 1.579642,-3.519177 3.521331,-3.519177 z m 0,-37.346805 c 1.941689,0 3.521332,1.578565 3.521332,3.519177 0,1.940611 -1.579643,3.519176 -3.521332,3.519176 -1.941689,0 -3.521331,-1.578565 -3.521331,-3.519176 0,-1.940612 1.579642,-3.519177 3.521331,-3.519177 z m 0,-37.518131 c 1.941689,0 3.521332,1.578566 3.521332,3.519177 0,1.940612 -1.579643,3.519177 -3.521332,3.519177 -1.941689,0 -3.521331,-1.578565 -3.521331,-3.519177 0,-1.940611 1.579642,-3.519177 3.521331,-3.519177 z M -4.324708,9.192313 c -1.9406115,0 -3.5202542,-1.578565 -3.5202542,-3.519176 0,-1.940612 1.5796427,-3.5181 3.5202542,-3.5181 1.9416891,0 3.52133177,1.578566 3.52133177,3.519177 0,1.940612 -1.57964267,3.518099 -3.52133177,3.518099 z m 0,37.518131 c -1.9406115,0 -3.5202542,-1.578565 -3.5202542,-3.519177 0,-1.940611 1.5796427,-3.519177 3.5202542,-3.519177 1.9416891,0 3.52133177,1.578566 3.52133177,3.519177 0,1.940612 -1.57964267,3.519177 -3.52133177,3.519177 z m 10.8560029,-3.71744 c 0,-14.64456 11.9195141,-26.558686 26.5694611,-26.558686 14.649947,0 26.569461,11.914126 26.569461,26.558686 0,14.644559 -11.918436,26.559763 -26.569461,26.559763 -14.651024,0 -26.5694611,-11.915204 -26.5694611,-26.559763 z"
     id="path841"
     style="fill:#800066;stroke-width:1.07752;fill-opacity:1;opacity:1" />
  <path
     d="M 106,10.000079 119.31977,10 v 21.928895 h 17.29946 V 10 h 13.31978 V 68.070967 H 136.61923 V 43.299435 c -0.32487,0.05417 -0.6227,0.108345 -0.8934,0.162517 l -0.97461,0.162437 h -13.64465 l -1.7868,-0.324873 V 68.071048 H 106 Z M 172.7613,25.67518 V 68.071048 H 160.49737 V 38.7513 l 0.40609,-2.923853 H 153.9187 L 159.44153,25.67518 Z M 172.43643,22.1828 H 160.25371 V 11.137133 h 12.18272 z m 11.04567,13.563429 h -6.74111 l 5.3604,-10.071049 h 11.77663 l 0.97462,4.548216 c 1.24532,-1.407754 2.7749,-2.558372 4.58882,-3.451771 1.81393,-0.8934 3.91196,-1.340099 6.29441,-1.340099 5.57684,0 9.55694,2.030453 11.93906,6.09136 1.35367,-1.895063 2.95098,-3.384035 4.79188,-4.466998 1.84089,-1.082962 4.14212,-1.624362 6.90354,-1.624362 4.87309,0 8.43288,1.285926 10.68018,3.857861 2.24731,2.571935 3.37055,6.673289 3.37055,12.304548 V 68.071048 H 231.07593 V 43.786825 c 0,-2.598981 -0.41966,-4.43979 -1.25888,-5.522834 -0.83923,-1.083043 -2.28759,-1.624362 -4.34517,-1.624362 -0.86636,0 -1.66498,0.09478 -2.39594,0.284263 -0.73096,0.189482 -1.35366,0.5414 -1.86802,1.055755 -0.51435,0.514354 -0.92044,1.218272 -1.21827,2.111671 -0.29782,0.8934 -0.4467,2.071063 -0.4467,3.532989 v 24.44666 H 207.1978 v -24.44666 c 0,-2.707244 -0.47375,-4.548215 -1.42132,-5.522833 -0.94757,-0.974618 -2.26063,-1.461927 -3.93916,-1.461927 -0.81218,0 -1.57019,0.08122 -2.27411,0.243655 -0.70392,0.162436 -1.3401,0.487309 -1.90863,0.974618 -0.56852,0.487308 -1.01522,1.191226 -1.3401,2.111671 -0.32487,0.920445 -0.48731,2.138717 -0.48731,3.654816 v 24.44666 H 183.48202 V 35.746148 Z m 91.04553,13.725865 c -0.54148,-0.108263 -1.10984,-0.176162 -1.70542,-0.203207 -0.59557,-0.02721 -1.10992,-0.04061 -1.54306,-0.04061 -2.27411,0 -4.11492,0.351918 -5.52283,1.055835 -1.40792,0.703918 -2.11168,1.92219 -2.11168,3.654817 0,1.082881 0.25722,1.935672 0.77158,2.558371 0.51435,0.622699 1.15053,1.082963 1.90854,1.38079 0.75801,0.297826 1.55663,0.473826 2.39586,0.527999 0.83922,0.05417 1.55662,0.08122 2.1522,0.08122 1.08288,0 2.30115,-0.135391 3.65481,-0.406091 z m -4.22334,-8.933995 c 0.43313,0 1.01506,0.01381 1.74603,0.04069 0.73096,0.02721 1.5567,0.06765 2.47715,0.121827 -0.0542,-2.111672 -0.7987,-3.478817 -2.23358,-4.101516 -1.43488,-0.6227 -3.28934,-0.934009 -5.56344,-0.934009 -1.24532,0 -2.6802,0.148873 -4.30456,0.4467 -1.62437,0.297827 -3.38412,0.744527 -5.27918,1.340099 l -1.29949,-4.466997 c -0.16244,-0.595573 -0.39253,-1.461927 -0.69036,-2.598981 -0.29782,-1.137054 -0.50087,-2.030453 -0.60913,-2.680198 2.70724,-0.920445 5.26577,-1.583754 7.67511,-1.989845 2.40934,-0.40609 4.58882,-0.609136 6.53806,-0.609136 5.73928,0 10.17907,1.367145 13.31977,4.101516 3.14071,2.734371 4.71066,7.106587 4.71066,13.11673 v 23.796914 c -2.11167,0.595573 -4.54822,1.177663 -7.30964,1.74619 -2.76141,0.568527 -5.73928,0.85279 -8.93399,0.85279 -2.81559,0 -5.3738,-0.243654 -7.67511,-0.730963 -2.30132,-0.487309 -4.27736,-1.29949 -5.92893,-2.436544 -1.65157,-1.137054 -2.92385,-2.626026 -3.81725,-4.466998 -0.8934,-1.840971 -1.3401,-4.088115 -1.3401,-6.741105 0,-2.65299 0.55496,-4.873088 1.66497,-6.659887 1.11001,-1.786799 2.54489,-3.208117 4.30456,-4.263953 1.75967,-1.055835 3.73604,-1.800362 5.92893,-2.233498 2.19289,-0.433137 4.39918,-0.649745 6.61927,-0.649745 z m 19.2487,-14.862919 h 13.64464 l 7.71573,31.675074 8.85277,-31.675074 h 12.75125 l -9.34008,31.106547 c -1.02879,3.411162 -2.04402,6.808923 -3.04568,10.192876 -1.00167,3.383954 -1.98985,6.700497 -2.96447,9.949222 -0.64974,2.057499 -1.42131,3.763085 -2.31471,5.116745 -0.8934,1.35366 -1.92219,2.43654 -3.08629,3.24872 -1.1641,0.81218 -2.45003,1.38071 -3.85778,1.70558 -1.40776,0.32488 -2.9509,0.48731 -4.62944,0.48731 -1.35366,0 -2.82915,-0.14887 -4.42638,-0.4467 -1.59724,-0.29782 -3.42473,-0.77157 -5.48223,-1.42131 l 4.71065,-8.771563 1.98985,0.284263 1.3401,0.121828 c 0.54148,0 1.08296,-0.04061 1.62444,-0.121828 0.54148,-0.08122 1.0694,-0.284263 1.58375,-0.609136 0.51436,-0.324872 1.00167,-0.85279 1.46193,-1.583753 0.46026,-0.730963 0.87992,-1.74619 1.25896,-3.04568 l 0.56853,-2.436545 1.13705,-1.380708 h -7.14719 z m 67.97958,23.796914 c -0.54148,-0.108263 -1.10985,-0.176162 -1.70542,-0.203207 -0.59557,-0.02721 -1.10993,-0.04061 -1.54306,-0.04061 -2.27411,0 -4.11492,0.351918 -5.52284,1.055835 -1.40791,0.703918 -2.11167,1.92219 -2.11167,3.654817 0,1.082881 0.25722,1.935672 0.77157,2.558371 0.51436,0.622699 1.15054,1.082963 1.90855,1.38079 0.75801,0.297826 1.55663,0.473826 2.39585,0.527999 0.83923,0.05417 1.55663,0.08122 2.1522,0.08122 1.08288,0 2.30116,-0.135391 3.65482,-0.406091 z m -4.22334,-8.933995 c 0.43313,0 1.01506,0.01381 1.74602,0.04069 0.73097,0.02721 1.55671,0.06765 2.47716,0.121827 -0.0542,-2.111672 -0.7987,-3.478817 -2.23358,-4.101516 -1.43488,-0.6227 -3.28934,-0.934009 -5.56345,-0.934009 -1.24531,0 -2.68019,0.148873 -4.30456,0.4467 -1.62436,0.297827 -3.38411,0.744527 -5.27918,1.340099 l -1.29949,-4.466997 c -0.16243,-0.595573 -0.39252,-1.461927 -0.69035,-2.598981 -0.29783,-1.137054 -0.50087,-2.030453 -0.60914,-2.680198 2.70725,-0.920445 5.26578,-1.583754 7.67512,-1.989845 2.40933,-0.40609 4.58882,-0.609136 6.53806,-0.609136 5.73928,0 10.17907,1.367145 13.31977,4.101516 3.14071,2.734371 4.71065,7.106587 4.71065,13.11673 v 23.796914 c -2.11167,0.595573 -4.54821,1.177663 -7.30963,1.74619 -2.76142,0.568527 -5.73928,0.85279 -8.93399,0.85279 -2.81559,0 -5.3738,-0.243654 -7.67512,-0.730963 -2.30131,-0.487309 -4.27735,-1.29949 -5.92892,-2.436544 -1.65157,-1.137054 -2.92385,-2.626026 -3.81725,-4.466998 -0.8934,-1.840971 -1.3401,-4.088115 -1.3401,-6.741105 0,-2.65299 0.55496,-4.873088 1.66497,-6.659887 1.11001,-1.786799 2.54489,-3.208117 4.30456,-4.263953 1.75967,-1.055835 3.73603,-1.800362 5.92892,-2.233498 2.19289,-0.433137 4.39918,-0.649745 6.61928,-0.649745 z"
     id="path844"
     style="fill:#800066;stroke-width:4.06091;fill-opacity:1;opacity:1" />
</svg>
